<?xml version="1.0" standalone="no"?>
<!DOCTYPE svg PUBLIC "-//W3C//DTD SVG 20010904//EN"
 "http://www.w3.org/TR/2001/REC-SVG-20010904/DTD/svg10.dtd">
<svg version="1.0" xmlns="http://www.w3.org/2000/svg"
 width="421.000000pt" height="421.000000pt" viewBox="0 0 421.000000 421.000000"
 preserveAspectRatio="xMidYMid meet">
<metadata>
Created by potrace 1.14, written by Peter Selinger 2001-2017
</metadata>
<g transform="translate(0.000000,421.000000) scale(0.100000,-0.100000)"
fill="#000000" stroke="none">
<path d="M2097 3724 c-1 -1 -31 -4 -67 -7 -191 -16 -392 -108 -500 -229 -25
-28 -85 -94 -143 -158 -37 -41 -87 -115 -87 -130 0 -5 -4 -10 -10 -10 -5 0 -9
-3 -8 -7 1 -5 -10 -33 -24 -64 -15 -31 -32 -76 -39 -100 -7 -24 -14 -48 -15
-54 -47 -161 -62 -465 -33 -653 4 -25 -5 -39 -32 -49 -17 -7 -28 -16 -25 -22
3 -5 2 -11 -4 -13 -5 -1 -13 -23 -17 -48 -20 -143 23 -419 73 -461 9 -7 35
-12 59 -10 l43 2 22 -73 c12 -40 29 -86 38 -103 9 -16 17 -35 18 -42 3 -16 81
-153 105 -184 10 -13 40 -52 65 -87 50 -68 156 -179 217 -227 35 -28 169 -104
192 -110 6 -1 19 -5 30 -9 61 -23 96 -29 165 -29 229 1 465 151 710 450 22 27
80 123 80 133 0 5 5 10 11 10 5 0 7 5 4 10 -3 6 -3 10 2 10 8 0 44 78 42 94
-2 17 30 27 50 16 47 -25 110 39 137 140 2 8 11 40 19 70 16 54 19 67 31 113
16 66 16 156 -1 191 -10 20 -23 36 -31 36 -11 0 -10 8 2 43 9 23 17 50 19 59
2 9 9 26 15 37 6 12 8 21 5 21 -3 0 -1 8 4 18 6 11 12 30 15 43 3 13 8 35 11
49 3 14 8 34 10 45 3 11 16 67 29 125 49 211 20 384 -98 590 -89 155 -149 205
-259 212 -34 2 -40 7 -53 37 -8 20 -18 38 -22 41 -5 3 -16 26 -26 52 -17 47
-64 88 -100 88 -9 0 -21 9 -28 20 -7 11 -18 20 -25 20 -7 0 -13 3 -13 8 0 11
-104 62 -160 78 -14 4 -90 8 -170 10 -80 2 -165 4 -188 6 -24 2 -44 2 -45 2z"/>
</g>
</svg>
